<svg xmlns="http://www.w3.org/2000/svg" width="620" height="1000" viewBox="0 0 620 1000">
<rect width="620" height="1000" fill="#171a1c"/>
<rect width="620" height="64" fill="#26292b"/>
<g fill="#363a3d"><rect x="28" y="15" width="138" height="35" rx="18"/><rect x="182" y="15" width="190" height="35" rx="18"/><rect x="388" y="15" width="154" height="35" rx="18"/></g>
<g fill="#d7dbde" font-family="Arial,sans-serif" font-size="15" text-anchor="middle"><text x="97" y="38">Hoy · 20:32</text><text x="277" y="38">Servicio de cena</text><text x="465" y="38">Vista del local</text></g>
<g fill="none" stroke="#303538" stroke-width="29" stroke-linecap="square"><path d="M610 116H199v94l-97 94 95 107-151 144v250q0 124 143 124h340"/><path d="m208 297 123 125M385 483l109 110-111 122M519 829l78 66"/></g>
<g fill="#737b80" font-family="Arial,sans-serif" font-size="12" letter-spacing="3"><text x="240" y="165">SALÓN PRINCIPAL</text><text x="58" y="863">TERRAZA</text></g>
<g transform="translate(293 219)"><g fill="#e69064" opacity=".6"><rect x="-18" y="-43" width="36" height="22" rx="5"/><rect x="-18" y="21" width="36" height="22" rx="5"/>
</g><circle r="34" fill="#e69064"/><circle r="12" cy="-6" fill="none" stroke="#171a1c" stroke-opacity=".3" stroke-width="2"/><text y="18" fill="#203a46" font-family="Arial,sans-serif" font-size="14" font-weight="bold" text-anchor="middle">10</text>
<text y="63" fill="#d7dbde" font-family="Arial,sans-serif" font-size="14" text-anchor="middle">H. Chapman</text>
</g>
<g transform="translate(402 219)"><g fill="#489fe0" opacity=".6"><rect x="-18" y="-43" width="36" height="22" rx="5"/><rect x="-18" y="21" width="36" height="22" rx="5"/>
</g><circle r="34" fill="#489fe0"/><circle r="12" cy="-6" fill="none" stroke="#171a1c" stroke-opacity=".3" stroke-width="2"/><text y="18" fill="#203a46" font-family="Arial,sans-serif" font-size="14" font-weight="bold" text-anchor="middle">11</text>
<text y="63" fill="#d7dbde" font-family="Arial,sans-serif" font-size="14" text-anchor="middle">F. Rose</text>
</g>
<g transform="translate(554 219)"><g fill="#489fe0" opacity=".6"><rect x="-18" y="-43" width="36" height="22" rx="5"/><rect x="-18" y="21" width="36" height="22" rx="5"/>
</g><circle r="34" fill="#489fe0"/><circle r="12" cy="-6" fill="none" stroke="#171a1c" stroke-opacity=".3" stroke-width="2"/><text y="18" fill="#203a46" font-family="Arial,sans-serif" font-size="14" font-weight="bold" text-anchor="middle">12</text>
<text y="63" fill="#d7dbde" font-family="Arial,sans-serif" font-size="14" text-anchor="middle">C. McGuire</text>
</g>
<g transform="translate(327 370)"><g fill="#8064df" opacity=".6"><rect x="-18" y="-43" width="36" height="22" rx="5"/><rect x="-18" y="21" width="36" height="22" rx="5"/>
<rect x="-43" y="-18" width="22" height="36" rx="5"/><rect x="21" y="-18" width="22" height="36" rx="5"/>
</g><circle r="34" fill="#8064df"/><circle r="12" cy="-6" fill="none" stroke="#171a1c" stroke-opacity=".3" stroke-width="2"/><text y="18" fill="#203a46" font-family="Arial,sans-serif" font-size="14" font-weight="bold" text-anchor="middle">31</text>
<text y="63" fill="#d7dbde" font-family="Arial,sans-serif" font-size="14" text-anchor="middle">L. Young</text>
</g>
<g transform="translate(447 370)"><g fill="#52b6a2" opacity=".6"><rect x="-18" y="-43" width="36" height="22" rx="5"/><rect x="-18" y="21" width="36" height="22" rx="5"/>
<rect x="-43" y="-18" width="22" height="36" rx="5"/><rect x="21" y="-18" width="22" height="36" rx="5"/>
</g><circle r="34" fill="#52b6a2"/><circle r="12" cy="-6" fill="none" stroke="#171a1c" stroke-opacity=".3" stroke-width="2"/><text y="18" fill="#203a46" font-family="Arial,sans-serif" font-size="14" font-weight="bold" text-anchor="middle">32</text>
<text y="63" fill="#d7dbde" font-family="Arial,sans-serif" font-size="14" text-anchor="middle">E. Fletcher</text>
</g>
<g transform="translate(593 370)"><g fill="#489fe0" opacity=".6"><rect x="-18" y="-43" width="36" height="22" rx="5"/><rect x="-18" y="21" width="36" height="22" rx="5"/>
<rect x="-43" y="-18" width="22" height="36" rx="5"/><rect x="21" y="-18" width="22" height="36" rx="5"/>
</g><circle r="34" fill="#489fe0"/><circle r="12" cy="-6" fill="none" stroke="#171a1c" stroke-opacity=".3" stroke-width="2"/><text y="18" fill="#203a46" font-family="Arial,sans-serif" font-size="14" font-weight="bold" text-anchor="middle">36</text>
<circle r="39" fill="none" stroke="#edd45b" stroke-width="3"/>
<text y="63" fill="#d7dbde" font-family="Arial,sans-serif" font-size="14" text-anchor="middle">D. Jackson</text>
</g>
<g transform="translate(257 515)"><g fill="#8fcd6a" opacity=".6"><rect x="-18" y="-43" width="36" height="22" rx="5"/><rect x="-18" y="21" width="36" height="22" rx="5"/>
</g><circle r="34" fill="#8fcd6a"/><circle r="12" cy="-6" fill="none" stroke="#171a1c" stroke-opacity=".3" stroke-width="2"/><text y="18" fill="#203a46" font-family="Arial,sans-serif" font-size="14" font-weight="bold" text-anchor="middle">15</text>
<text y="63" fill="#d7dbde" font-family="Arial,sans-serif" font-size="14" text-anchor="middle">T. Carter</text>
</g>
<g transform="translate(151 588)"><g fill="#bdc3c6" opacity=".6"><rect x="-18" y="-43" width="36" height="22" rx="5"/><rect x="-18" y="21" width="36" height="22" rx="5"/>
</g><circle r="34" fill="#bdc3c6"/><circle r="12" cy="-6" fill="none" stroke="#171a1c" stroke-opacity=".3" stroke-width="2"/><text y="18" fill="#203a46" font-family="Arial,sans-serif" font-size="14" font-weight="bold" text-anchor="middle">16</text>
</g>
<g transform="translate(540 524)"><g fill="#8fcd6a" opacity=".6"><rect x="-18" y="-43" width="36" height="22" rx="5"/><rect x="-18" y="21" width="36" height="22" rx="5"/>
<rect x="-43" y="-18" width="22" height="36" rx="5"/><rect x="21" y="-18" width="22" height="36" rx="5"/>
</g><circle r="34" fill="#8fcd6a"/><circle r="12" cy="-6" fill="none" stroke="#171a1c" stroke-opacity=".3" stroke-width="2"/><text y="18" fill="#203a46" font-family="Arial,sans-serif" font-size="14" font-weight="bold" text-anchor="middle">33</text>
<text y="63" fill="#d7dbde" font-family="Arial,sans-serif" font-size="14" text-anchor="middle">D. Burton</text>
</g>
<g transform="translate(95 668)"><g fill="#8fcd6a" opacity=".6"><rect x="-18" y="-43" width="36" height="22" rx="5"/><rect x="-18" y="21" width="36" height="22" rx="5"/>
</g><circle r="34" fill="#8fcd6a"/><circle r="12" cy="-6" fill="none" stroke="#171a1c" stroke-opacity=".3" stroke-width="2"/><text y="18" fill="#203a46" font-family="Arial,sans-serif" font-size="14" font-weight="bold" text-anchor="middle">17</text>
<text y="63" fill="#d7dbde" font-family="Arial,sans-serif" font-size="14" text-anchor="middle">C. Edwards</text>
</g>
<g transform="translate(333 652)"><g fill="#a368d7" opacity=".6"><rect x="-18" y="-43" width="36" height="22" rx="5"/><rect x="-18" y="21" width="36" height="22" rx="5"/>
<rect x="-43" y="-18" width="22" height="36" rx="5"/><rect x="21" y="-18" width="22" height="36" rx="5"/>
</g><circle r="34" fill="#a368d7"/><circle r="12" cy="-6" fill="none" stroke="#171a1c" stroke-opacity=".3" stroke-width="2"/><text y="18" fill="#203a46" font-family="Arial,sans-serif" font-size="14" font-weight="bold" text-anchor="middle">51</text>
<text y="63" fill="#d7dbde" font-family="Arial,sans-serif" font-size="14" text-anchor="middle">R. Young</text>
</g>
<g transform="translate(466 726)"><g fill="#bdc3c6" opacity=".6"><rect x="-18" y="-43" width="36" height="22" rx="5"/><rect x="-18" y="21" width="36" height="22" rx="5"/>
<rect x="-43" y="-18" width="22" height="36" rx="5"/><rect x="21" y="-18" width="22" height="36" rx="5"/>
</g><circle r="34" fill="#bdc3c6"/><circle r="12" cy="-6" fill="none" stroke="#171a1c" stroke-opacity=".3" stroke-width="2"/><text y="18" fill="#203a46" font-family="Arial,sans-serif" font-size="14" font-weight="bold" text-anchor="middle">30</text>
</g>
<g transform="translate(217 750)"><g fill="#8064df" opacity=".6"><rect x="-18" y="-43" width="36" height="22" rx="5"/><rect x="-18" y="21" width="36" height="22" rx="5"/>
<rect x="-43" y="-18" width="22" height="36" rx="5"/><rect x="21" y="-18" width="22" height="36" rx="5"/>
</g><circle r="34" fill="#8064df"/><circle r="12" cy="-6" fill="none" stroke="#171a1c" stroke-opacity=".3" stroke-width="2"/><text y="18" fill="#203a46" font-family="Arial,sans-serif" font-size="14" font-weight="bold" text-anchor="middle">50</text>
<text y="63" fill="#d7dbde" font-family="Arial,sans-serif" font-size="14" text-anchor="middle">Washington</text>
</g>
<g transform="translate(93 780)"><g fill="#489fe0" opacity=".6"><rect x="-18" y="-43" width="36" height="22" rx="5"/><rect x="-18" y="21" width="36" height="22" rx="5"/>
</g><circle r="34" fill="#489fe0"/><circle r="12" cy="-6" fill="none" stroke="#171a1c" stroke-opacity=".3" stroke-width="2"/><text y="18" fill="#203a46" font-family="Arial,sans-serif" font-size="14" font-weight="bold" text-anchor="middle">18</text>
<text y="63" fill="#d7dbde" font-family="Arial,sans-serif" font-size="14" text-anchor="middle">E. Hamilton</text>
</g>
<g transform="translate(379 835)"><g fill="#bdc3c6" opacity=".6"><rect x="-18" y="-43" width="36" height="22" rx="5"/><rect x="-18" y="21" width="36" height="22" rx="5"/>
<rect x="-43" y="-18" width="22" height="36" rx="5"/><rect x="21" y="-18" width="22" height="36" rx="5"/>
</g><circle r="34" fill="#bdc3c6"/><circle r="12" cy="-6" fill="none" stroke="#171a1c" stroke-opacity=".3" stroke-width="2"/><text y="18" fill="#203a46" font-family="Arial,sans-serif" font-size="14" font-weight="bold" text-anchor="middle">34</text>
</g>
<g transform="translate(196 923)"><g fill="#489fe0" opacity=".6"><rect x="-18" y="-43" width="36" height="22" rx="5"/><rect x="-18" y="21" width="36" height="22" rx="5"/>
</g><circle r="34" fill="#489fe0"/><circle r="12" cy="-6" fill="none" stroke="#171a1c" stroke-opacity=".3" stroke-width="2"/><text y="18" fill="#203a46" font-family="Arial,sans-serif" font-size="14" font-weight="bold" text-anchor="middle">19</text>
</g>
<g transform="translate(281 923)"><g fill="#489fe0" opacity=".6"><rect x="-18" y="-43" width="36" height="22" rx="5"/><rect x="-18" y="21" width="36" height="22" rx="5"/>
</g><circle r="34" fill="#489fe0"/><circle r="12" cy="-6" fill="none" stroke="#171a1c" stroke-opacity=".3" stroke-width="2"/><text y="18" fill="#203a46" font-family="Arial,sans-serif" font-size="14" font-weight="bold" text-anchor="middle">20</text>
</g>
<g transform="translate(366 923)"><g fill="#489fe0" opacity=".6"><rect x="-18" y="-43" width="36" height="22" rx="5"/><rect x="-18" y="21" width="36" height="22" rx="5"/>
</g><circle r="34" fill="#489fe0"/><circle r="12" cy="-6" fill="none" stroke="#171a1c" stroke-opacity=".3" stroke-width="2"/><text y="18" fill="#203a46" font-family="Arial,sans-serif" font-size="14" font-weight="bold" text-anchor="middle">21</text>
</g>
<g transform="translate(538 914)"><g fill="#bdc3c6" opacity=".6"><rect x="-18" y="-43" width="36" height="22" rx="5"/><rect x="-18" y="21" width="36" height="22" rx="5"/>
<rect x="-43" y="-18" width="22" height="36" rx="5"/><rect x="21" y="-18" width="22" height="36" rx="5"/>
</g><circle r="34" fill="#bdc3c6"/><circle r="12" cy="-6" fill="none" stroke="#171a1c" stroke-opacity=".3" stroke-width="2"/><text y="18" fill="#203a46" font-family="Arial,sans-serif" font-size="14" font-weight="bold" text-anchor="middle">40</text>
</g>
</svg>